{
	"asset":{
		"generator":"Khronos glTF Blender I/O v4.4.55",
		"version":"2.0"
	},
	"extensionsUsed":[
		"KHR_materials_emissive_strength"
	],
	"scene":0,
	"scenes":[
		{
			"name":"Scene",
			"nodes":[
				0
			]
		}
	],
	"nodes":[
		{
			"mesh":0,
			"name":"Cube.002"
		}
	],
	"materials":[
		{
			"doubleSided":true,
			"name":"Material.001",
			"pbrMetallicRoughness":{
				"baseColorTexture":{
					"index":0
				},
				"metallicFactor":0
			}
		},
		{
			"doubleSided":true,
			"emissiveFactor":[
				1,
				0.2856793701648712,
				0.02904985472559929
			],
			"extensions":{
				"KHR_materials_emissive_strength":{
					"emissiveStrength":49.79999542236328
				}
			},
			"name":"Material.003",
			"pbrMetallicRoughness":{
				"baseColorFactor":[
					0,
					0,
					0,
					1
				]
			}
		},
		{
			"doubleSided":true,
			"name":"Material.002",
			"pbrMetallicRoughness":{
				"baseColorTexture":{
					"index":1
				},
				"metallicFactor":0,
				"roughnessFactor":0.5
			}
		}
	],
	"meshes":[
		{
			"name":"Cube.002",
			"primitives":[
				{
					"attributes":{
						"POSITION":0,
						"NORMAL":1,
						"TEXCOORD_0":2
					},
					"indices":3,
					"material":0
				},
				{
					"attributes":{
						"POSITION":4,
						"NORMAL":5,
						"TEXCOORD_0":6
					},
					"indices":7,
					"material":1
				},
				{
					"attributes":{
						"POSITION":8,
						"NORMAL":9,
						"TEXCOORD_0":10
					},
					"indices":11,
					"material":2
				}
			]
		}
	],
	"textures":[
		{
			"sampler":0,
			"source":0
		},
		{
			"sampler":0,
			"source":1
		}
	],
	"images":[
		{
			"mimeType":"image/png",
			"name":"plastered_stone_wall_diff_1k",
			"uri":"plastered_stone_wall_diff_1k.png"
		},
		{
			"mimeType":"image/png",
			"name":"portal",
			"uri":"portal.png"
		}
	],
	"accessors":[
		{
			"bufferView":0,
			"componentType":5126,
			"count":5805,
			"max":[
				2.27468204498291,
				2.530111789703369,
				0.05606456100940704
			],
			"min":[
				-2.27468204498291,
				-2.384185791015625e-07,
				-0.2865729331970215
			],
			"type":"VEC3"
		},
		{
			"bufferView":1,
			"componentType":5126,
			"count":5805,
			"type":"VEC3"
		},
		{
			"bufferView":2,
			"componentType":5126,
			"count":5805,
			"type":"VEC2"
		},
		{
			"bufferView":3,
			"componentType":5123,
			"count":23922,
			"type":"SCALAR"
		},
		{
			"bufferView":4,
			"componentType":5126,
			"count":156,
			"max":[
				1.5784971714019775,
				2.530111789703369,
				0.05606456100940704
			],
			"min":[
				-1.564074993133545,
				0.19202810525894165,
				-0.2865729331970215
			],
			"type":"VEC3"
		},
		{
			"bufferView":5,
			"componentType":5126,
			"count":156,
			"type":"VEC3"
		},
		{
			"bufferView":6,
			"componentType":5126,
			"count":156,
			"type":"VEC2"
		},
		{
			"bufferView":7,
			"componentType":5123,
			"count":246,
			"type":"SCALAR"
		},
		{
			"bufferView":8,
			"componentType":5126,
			"count":102,
			"max":[
				1.2801965475082397,
				2.2494983673095703,
				5.960464477539063e-08
			],
			"min":[
				-1.2801965475082397,
				-1.1920928955078125e-07,
				-0.2305084615945816
			],
			"type":"VEC3"
		},
		{
			"bufferView":9,
			"componentType":5126,
			"count":102,
			"type":"VEC3"
		},
		{
			"bufferView":10,
			"componentType":5126,
			"count":102,
			"type":"VEC2"
		},
		{
			"bufferView":11,
			"componentType":5123,
			"count":294,
			"type":"SCALAR"
		}
	],
	"bufferViews":[
		{
			"buffer":0,
			"byteLength":69660,
			"byteOffset":0,
			"target":34962
		},
		{
			"buffer":0,
			"byteLength":69660,
			"byteOffset":69660,
			"target":34962
		},
		{
			"buffer":0,
			"byteLength":46440,
			"byteOffset":139320,
			"target":34962
		},
		{
			"buffer":0,
			"byteLength":47844,
			"byteOffset":185760,
			"target":34963
		},
		{
			"buffer":0,
			"byteLength":1872,
			"byteOffset":233604,
			"target":34962
		},
		{
			"buffer":0,
			"byteLength":1872,
			"byteOffset":235476,
			"target":34962
		},
		{
			"buffer":0,
			"byteLength":1248,
			"byteOffset":237348,
			"target":34962
		},
		{
			"buffer":0,
			"byteLength":492,
			"byteOffset":238596,
			"target":34963
		},
		{
			"buffer":0,
			"byteLength":1224,
			"byteOffset":239088,
			"target":34962
		},
		{
			"buffer":0,
			"byteLength":1224,
			"byteOffset":240312,
			"target":34962
		},
		{
			"buffer":0,
			"byteLength":816,
			"byteOffset":241536,
			"target":34962
		},
		{
			"buffer":0,
			"byteLength":588,
			"byteOffset":242352,
			"target":34963
		}
	],
	"samplers":[
		{
			"magFilter":9729,
			"minFilter":9987
		}
	],
	"buffers":[
		{
			"byteLength":242940,
			"uri":"portal-new.bin"
		}
	]
}
